<mxfile host="app.diagrams.net" agent="Mozilla/5.0 (Windows NT 10.0; Win64; x64) AppleWebKit/537.36 (KHTML, like Gecko) Chrome/130.0.0.0 Safari/537.36" version="24.8.3">
  <diagram name="Página-1" id="L_BWk9udKe1-PGriOnHT">
    <mxGraphModel dx="1395" dy="643" grid="1" gridSize="10" guides="1" tooltips="1" connect="1" arrows="1" fold="1" page="1" pageScale="1" pageWidth="827" pageHeight="1169" math="0" shadow="0">
      <root>
        <mxCell id="0" />
        <mxCell id="1" parent="0" />
        <mxCell id="JGx-ZG4QfpLHqLKds4Qj-1" value="" style="rounded=1;whiteSpace=wrap;html=1;arcSize=15;" vertex="1" parent="1">
          <mxGeometry x="330" y="10" width="200" height="570" as="geometry" />
        </mxCell>
        <mxCell id="JGx-ZG4QfpLHqLKds4Qj-2" value="Hóspede" style="shape=umlActor;verticalLabelPosition=bottom;verticalAlign=top;html=1;outlineConnect=0;" vertex="1" parent="1">
          <mxGeometry x="250" y="75" width="30" height="60" as="geometry" />
        </mxCell>
        <mxCell id="JGx-ZG4QfpLHqLKds4Qj-3" value="Usuário" style="shape=umlActor;verticalLabelPosition=bottom;verticalAlign=top;html=1;outlineConnect=0;" vertex="1" parent="1">
          <mxGeometry x="250" y="345" width="30" height="60" as="geometry" />
        </mxCell>
        <mxCell id="JGx-ZG4QfpLHqLKds4Qj-6" value="Elevador" style="shape=umlActor;verticalLabelPosition=bottom;verticalAlign=top;html=1;outlineConnect=0;" vertex="1" parent="1">
          <mxGeometry x="640" y="220" width="30" height="60" as="geometry" />
        </mxCell>
        <mxCell id="JGx-ZG4QfpLHqLKds4Qj-7" value="Sistema elevador" style="text;html=1;align=center;verticalAlign=middle;whiteSpace=wrap;rounded=0;" vertex="1" parent="1">
          <mxGeometry x="400" y="20" width="60" height="30" as="geometry" />
        </mxCell>
        <mxCell id="JGx-ZG4QfpLHqLKds4Qj-8" value="UC_01&lt;div&gt;Ir para&amp;nbsp;&lt;div&gt;andares&lt;/div&gt;&lt;/div&gt;" style="rounded=0;whiteSpace=wrap;html=1;" vertex="1" parent="1">
          <mxGeometry x="385" y="75" width="90" height="45" as="geometry" />
        </mxCell>
        <mxCell id="JGx-ZG4QfpLHqLKds4Qj-9" value="UC_02&lt;div&gt;Indicar andares&lt;/div&gt;&lt;div&gt;e sentido&lt;/div&gt;" style="rounded=0;whiteSpace=wrap;html=1;" vertex="1" parent="1">
          <mxGeometry x="385" y="150" width="90" height="45" as="geometry" />
        </mxCell>
        <mxCell id="JGx-ZG4QfpLHqLKds4Qj-10" value="&lt;font style=&quot;font-size: 11px;&quot;&gt;UC_03&lt;/font&gt;&lt;div&gt;&lt;font style=&quot;font-size: 11px;&quot;&gt;Configurar limites de elevador&lt;/font&gt;&lt;/div&gt;" style="rounded=0;whiteSpace=wrap;html=1;" vertex="1" parent="1">
          <mxGeometry x="385" y="225" width="90" height="45" as="geometry" />
        </mxCell>
        <mxCell id="JGx-ZG4QfpLHqLKds4Qj-11" value="UC_04&lt;div&gt;Acionar&lt;/div&gt;&lt;div&gt;emergencia&lt;/div&gt;" style="rounded=0;whiteSpace=wrap;html=1;" vertex="1" parent="1">
          <mxGeometry x="385" y="300" width="90" height="45" as="geometry" />
        </mxCell>
        <mxCell id="JGx-ZG4QfpLHqLKds4Qj-12" value="&lt;font style=&quot;font-size: 11px;&quot;&gt;UC_05&lt;/font&gt;&lt;div&gt;&lt;font style=&quot;font-size: 11px;&quot;&gt;Cadastrar novos elevadores&lt;/font&gt;&lt;/div&gt;" style="rounded=0;whiteSpace=wrap;html=1;" vertex="1" parent="1">
          <mxGeometry x="385" y="370" width="90" height="45" as="geometry" />
        </mxCell>
        <mxCell id="JGx-ZG4QfpLHqLKds4Qj-13" value="UC_06&lt;div&gt;Gerenciar usuarios&lt;/div&gt;" style="rounded=0;whiteSpace=wrap;html=1;" vertex="1" parent="1">
          <mxGeometry x="385" y="445" width="90" height="45" as="geometry" />
        </mxCell>
        <mxCell id="JGx-ZG4QfpLHqLKds4Qj-14" value="UC_07&lt;div&gt;Visualizar logs&lt;/div&gt;" style="rounded=0;whiteSpace=wrap;html=1;" vertex="1" parent="1">
          <mxGeometry x="385" y="520" width="90" height="45" as="geometry" />
        </mxCell>
        <mxCell id="JGx-ZG4QfpLHqLKds4Qj-16" value="" style="endArrow=none;html=1;rounded=0;exitX=0.5;exitY=0.5;exitDx=0;exitDy=0;exitPerimeter=0;entryX=0;entryY=0.5;entryDx=0;entryDy=0;endFill=0;" edge="1" parent="1" source="JGx-ZG4QfpLHqLKds4Qj-2" target="JGx-ZG4QfpLHqLKds4Qj-8">
          <mxGeometry width="50" height="50" relative="1" as="geometry">
            <mxPoint x="410" y="320" as="sourcePoint" />
            <mxPoint x="460" y="270" as="targetPoint" />
          </mxGeometry>
        </mxCell>
        <mxCell id="JGx-ZG4QfpLHqLKds4Qj-17" value="" style="endArrow=none;html=1;rounded=0;exitX=0.5;exitY=0.5;exitDx=0;exitDy=0;exitPerimeter=0;entryX=1;entryY=0.5;entryDx=0;entryDy=0;endFill=0;" edge="1" parent="1" source="JGx-ZG4QfpLHqLKds4Qj-6" target="JGx-ZG4QfpLHqLKds4Qj-8">
          <mxGeometry width="50" height="50" relative="1" as="geometry">
            <mxPoint x="410" y="320" as="sourcePoint" />
            <mxPoint x="460" y="270" as="targetPoint" />
          </mxGeometry>
        </mxCell>
        <mxCell id="JGx-ZG4QfpLHqLKds4Qj-18" value="" style="endArrow=none;html=1;rounded=0;entryX=0.5;entryY=0.5;entryDx=0;entryDy=0;entryPerimeter=0;exitX=1;exitY=0.5;exitDx=0;exitDy=0;" edge="1" parent="1" source="JGx-ZG4QfpLHqLKds4Qj-9" target="JGx-ZG4QfpLHqLKds4Qj-6">
          <mxGeometry width="50" height="50" relative="1" as="geometry">
            <mxPoint x="410" y="320" as="sourcePoint" />
            <mxPoint x="460" y="270" as="targetPoint" />
          </mxGeometry>
        </mxCell>
        <mxCell id="JGx-ZG4QfpLHqLKds4Qj-19" value="" style="endArrow=none;html=1;rounded=0;exitX=0.5;exitY=0.5;exitDx=0;exitDy=0;exitPerimeter=0;entryX=0;entryY=0.5;entryDx=0;entryDy=0;" edge="1" parent="1" source="JGx-ZG4QfpLHqLKds4Qj-3" target="JGx-ZG4QfpLHqLKds4Qj-11">
          <mxGeometry width="50" height="50" relative="1" as="geometry">
            <mxPoint x="410" y="320" as="sourcePoint" />
            <mxPoint x="460" y="270" as="targetPoint" />
          </mxGeometry>
        </mxCell>
        <mxCell id="JGx-ZG4QfpLHqLKds4Qj-20" value="" style="endArrow=none;html=1;rounded=0;exitX=0.5;exitY=0.5;exitDx=0;exitDy=0;exitPerimeter=0;entryX=0;entryY=0.5;entryDx=0;entryDy=0;" edge="1" parent="1" source="JGx-ZG4QfpLHqLKds4Qj-3" target="JGx-ZG4QfpLHqLKds4Qj-12">
          <mxGeometry width="50" height="50" relative="1" as="geometry">
            <mxPoint x="410" y="320" as="sourcePoint" />
            <mxPoint x="460" y="270" as="targetPoint" />
          </mxGeometry>
        </mxCell>
        <mxCell id="JGx-ZG4QfpLHqLKds4Qj-21" value="" style="endArrow=none;html=1;rounded=0;exitX=0.5;exitY=0.5;exitDx=0;exitDy=0;exitPerimeter=0;entryX=0;entryY=0.5;entryDx=0;entryDy=0;" edge="1" parent="1" source="JGx-ZG4QfpLHqLKds4Qj-3" target="JGx-ZG4QfpLHqLKds4Qj-13">
          <mxGeometry width="50" height="50" relative="1" as="geometry">
            <mxPoint x="410" y="320" as="sourcePoint" />
            <mxPoint x="460" y="270" as="targetPoint" />
          </mxGeometry>
        </mxCell>
        <mxCell id="JGx-ZG4QfpLHqLKds4Qj-22" value="" style="endArrow=none;html=1;rounded=0;exitX=0.5;exitY=0.5;exitDx=0;exitDy=0;exitPerimeter=0;entryX=0;entryY=0.5;entryDx=0;entryDy=0;" edge="1" parent="1" source="JGx-ZG4QfpLHqLKds4Qj-3" target="JGx-ZG4QfpLHqLKds4Qj-14">
          <mxGeometry width="50" height="50" relative="1" as="geometry">
            <mxPoint x="410" y="320" as="sourcePoint" />
            <mxPoint x="460" y="270" as="targetPoint" />
          </mxGeometry>
        </mxCell>
        <mxCell id="JGx-ZG4QfpLHqLKds4Qj-23" value="" style="endArrow=none;html=1;rounded=0;exitX=0.5;exitY=0.5;exitDx=0;exitDy=0;exitPerimeter=0;entryX=0;entryY=0.5;entryDx=0;entryDy=0;" edge="1" parent="1" source="JGx-ZG4QfpLHqLKds4Qj-3" target="JGx-ZG4QfpLHqLKds4Qj-10">
          <mxGeometry width="50" height="50" relative="1" as="geometry">
            <mxPoint x="410" y="320" as="sourcePoint" />
            <mxPoint x="460" y="270" as="targetPoint" />
          </mxGeometry>
        </mxCell>
        <mxCell id="JGx-ZG4QfpLHqLKds4Qj-24" value="" style="endArrow=none;html=1;rounded=0;exitX=0.5;exitY=0.5;exitDx=0;exitDy=0;exitPerimeter=0;entryX=0;entryY=0.5;entryDx=0;entryDy=0;" edge="1" parent="1" source="JGx-ZG4QfpLHqLKds4Qj-2" target="JGx-ZG4QfpLHqLKds4Qj-11">
          <mxGeometry width="50" height="50" relative="1" as="geometry">
            <mxPoint x="410" y="320" as="sourcePoint" />
            <mxPoint x="460" y="270" as="targetPoint" />
          </mxGeometry>
        </mxCell>
        <mxCell id="JGx-ZG4QfpLHqLKds4Qj-25" value="" style="endArrow=none;html=1;rounded=0;entryX=0.5;entryY=0.5;entryDx=0;entryDy=0;entryPerimeter=0;exitX=1;exitY=0.5;exitDx=0;exitDy=0;" edge="1" parent="1" source="JGx-ZG4QfpLHqLKds4Qj-11" target="JGx-ZG4QfpLHqLKds4Qj-6">
          <mxGeometry width="50" height="50" relative="1" as="geometry">
            <mxPoint x="410" y="320" as="sourcePoint" />
            <mxPoint x="460" y="270" as="targetPoint" />
          </mxGeometry>
        </mxCell>
        <mxCell id="JGx-ZG4QfpLHqLKds4Qj-26" value="" style="endArrow=none;html=1;rounded=0;exitX=1;exitY=0.5;exitDx=0;exitDy=0;entryX=0.5;entryY=0.5;entryDx=0;entryDy=0;entryPerimeter=0;" edge="1" parent="1" source="JGx-ZG4QfpLHqLKds4Qj-12" target="JGx-ZG4QfpLHqLKds4Qj-6">
          <mxGeometry width="50" height="50" relative="1" as="geometry">
            <mxPoint x="690" y="320" as="sourcePoint" />
            <mxPoint x="740" y="270" as="targetPoint" />
          </mxGeometry>
        </mxCell>
        <mxCell id="JGx-ZG4QfpLHqLKds4Qj-27" value="" style="endArrow=none;html=1;rounded=0;exitX=1;exitY=0.5;exitDx=0;exitDy=0;entryX=0.5;entryY=0.5;entryDx=0;entryDy=0;entryPerimeter=0;" edge="1" parent="1" source="JGx-ZG4QfpLHqLKds4Qj-10" target="JGx-ZG4QfpLHqLKds4Qj-6">
          <mxGeometry width="50" height="50" relative="1" as="geometry">
            <mxPoint x="690" y="320" as="sourcePoint" />
            <mxPoint x="740" y="270" as="targetPoint" />
          </mxGeometry>
        </mxCell>
      </root>
    </mxGraphModel>
  </diagram>
</mxfile>
